<?xml version="1.0" encoding="utf-8"?>
<!-- Generator: Adobe Illustrator 21.0.0, SVG Export Plug-In . SVG Version: 6.00 Build 0)  -->
<svg version="1.1" id="Layer_1" xmlns="http://www.w3.org/2000/svg" xmlns:xlink="http://www.w3.org/1999/xlink" x="0px" y="0px"
	 viewBox="0 0 40 40" enable-background="new 0 0 40 40" xml:space="preserve">
<g id="Group_4900" transform="translate(7064 10473)">
	<path id="Rectangle_1695" fill="#98CC8C" d="M-7061-10473h34c1.7,0,3,1.3,3,3v34c0,1.7-1.3,3-3,3h-34c-1.7,0-3-1.3-3-3v-34
		C-7064-10471.7-7062.7-10473-7061-10473z"/>
	
		<path id="Path_3738" fill="none" stroke="#FFFFFF" stroke-width="2" stroke-linecap="round" stroke-linejoin="round" stroke-miterlimit="10" d="
		M-7037.3-10455.8c0-0.1-0.1-0.2-0.2-0.2l-4-0.6l-1.8-3.6h-0.3c-0.1,0-0.2,0-0.2,0.1l-1.8,3.6l-4,0.6c-0.1,0-0.2,0.1-0.2,0.2
		c0,0.1,0,0.2,0.1,0.3l2.9,2.8l-0.8,3.9c0,0.1,0,0.2,0.1,0.2c0.1,0.1,0.2,0.1,0.2,0c0,0,0,0,0,0l3.6-1.9l3.6,1.9h0.2
		c0.1,0,0.1-0.1,0.1-0.2l-0.7-4l2.9-2.8C-7037.3-10455.6-7037.3-10455.7-7037.3-10455.8z"/>
	
		<path id="Path_3739" fill="none" stroke="#FFFFFF" stroke-width="2" stroke-linecap="round" stroke-linejoin="round" stroke-miterlimit="10" d="
		M-7033-10439l-10.5-5l-10.5,5v-27h21V-10439z"/>
</g>
</svg>
