<svg xmlns="http://www.w3.org/2000/svg" viewBox="7335 11373 40 40">
  <defs>
    <style>
      .cls-1 {
        fill: #e5bd7d;
      }

      .cls-2 {
        fill: none;
        stroke: #fff;
        stroke-linecap: round;
        stroke-linejoin: round;
        stroke-width: 2px;
      }
    </style>
  </defs>
  <g id="Group_5103" data-name="Group 5103" transform="translate(7064 10473)">
    <path id="Path_3904" data-name="Path 3904" class="cls-1" d="M3,0H37a3,3,0,0,1,3,3V37a3,3,0,0,1-3,3H3a3,3,0,0,1-3-3V3A3,3,0,0,1,3,0Z" transform="translate(271 900)"/>
    <g id="Group_3612" data-name="Group 3612" transform="translate(278.92 907)">
      <path id="Path_3717" data-name="Path 3717" class="cls-2" d="M12.546,13.866h0a5,5,0,0,1-4.963-4.6L7.4,6.33A4.978,4.978,0,0,1,12.362,1h.46a4.978,4.978,0,0,1,4.963,5.33l-.276,2.941A5,5,0,0,1,12.546,13.866Z" transform="translate(-0.511)"/>
      <path id="Path_3718" data-name="Path 3718" class="cls-2" d="M15.987,17.2a8.568,8.568,0,0,0,4.044,1.93c3.492.827,3.125,4.963,2.941,6.525-2.849,2.022-19.024,2.022-21.781,0-.184-1.562-.551-5.7,2.941-6.525A8.568,8.568,0,0,0,8.175,17.2" transform="translate(0 -1.312)"/>
    </g>
  </g>
</svg>
