<svg id="Layer_1" data-name="Layer 1" xmlns="http://www.w3.org/2000/svg" viewBox="0 0 40 40"><defs><style>.cls-1{fill:#f3abb7;}.cls-2{fill:#fff;}</style></defs><title>Artboard 1 copy 12</title><path id="Path_3743" data-name="Path 3743" class="cls-1" d="M3,0H37a3,3,0,0,1,3,3V37a3,3,0,0,1-3,3H3a3,3,0,0,1-3-3V3A3,3,0,0,1,3,0Z"/><path class="cls-2" d="M30,9.52a1.09,1.09,0,0,0-.28-.71c-.62-.65-1.24-1.29-1.88-1.92a1.14,1.14,0,0,0-.76-.32H13.37a.9.9,0,0,0-.64.23.86.86,0,0,0-.23.64c0,.84,0,1.68,0,2.51V11.2H11c-.69,0-1,.26-1,1V32.53c0,.63.27.91.89.91H26.61c.61,0,.89-.28.89-.9V28.8h1.66a.83.83,0,0,0,.6-.22.89.89,0,0,0,.24-.65ZM11.47,32V12.64H24.34c.08,0,.09,0,.13,0l.67.7c.3.31.6.61.91,1q0,8.81,0,17.62Zm17.08-7v2.38H27.5q0-6.56,0-13.12a1.25,1.25,0,0,0-.3-.81c-.34-.37-.7-.73-1.05-1.09l-.75-.77a1.15,1.15,0,0,0-.88-.37H13.94V8h13l.8.81.81.82s.05.05.05.17Q28.55,17.38,28.55,25Z"/><path class="cls-2" d="M20.73,22.56H13.51a1,1,0,0,0-.38,0c-.17.06-.43.25-.4.5a.6.6,0,0,0,.36.44.93.93,0,0,0,.45.06h7.35a.79.79,0,0,0,.49-.14.48.48,0,0,0,0-.76A1,1,0,0,0,20.73,22.56Z"/><path class="cls-2" d="M20.85,26.11h-6a.64.64,0,0,0-.35.06.61.61,0,0,0-.33.43c0,.3.27.47.33.51a.54.54,0,0,0,.25.05h6.16A.68.68,0,0,0,21.4,27a.5.5,0,0,0,.15-.39.49.49,0,0,0-.16-.36A.73.73,0,0,0,20.85,26.11Z"/><path class="cls-2" d="M20.83,29.19h-4a.83.83,0,0,0-.57.16.47.47,0,0,0-.16.38c0,.15.09.49.72.49h4a.83.83,0,0,0,.57-.16.47.47,0,0,0,.16-.38C21.55,29.54,21.46,29.19,20.83,29.19Z"/><path class="cls-2" d="M23.37,14.24a.84.84,0,0,0-1,.17L17.26,19l-1.94-2a.88.88,0,0,0-.64-.29.8.8,0,0,0-.57.25.82.82,0,0,0,0,1.18l2.43,2.51a.9.9,0,0,0,.64.31.92.92,0,0,0,.61-.27l5.65-5.11a1,1,0,0,0,.29-.44A.78.78,0,0,0,23.37,14.24Z"/><path class="cls-2" d="M25.24,21.55a.25.25,0,0,0-.3.05L23.39,23l-.59-.6a.27.27,0,0,0-.19-.09.24.24,0,0,0-.17.07.25.25,0,0,0,0,.36l.74.76a.27.27,0,0,0,.19.09.28.28,0,0,0,.18-.08L25.27,22a.31.31,0,0,0,.09-.13A.24.24,0,0,0,25.24,21.55Z"/><path class="cls-2" d="M25.24,25.62a.25.25,0,0,0-.3.05l-1.55,1.4-.59-.6a.27.27,0,0,0-.19-.09.24.24,0,0,0-.17.07.25.25,0,0,0,0,.36l.74.76a.27.27,0,0,0,.19.09.28.28,0,0,0,.18-.08L25.27,26a.31.31,0,0,0,.09-.13A.24.24,0,0,0,25.24,25.62Z"/><path class="cls-2" d="M25.24,28.7a.25.25,0,0,0-.3.05l-1.55,1.4-.59-.6a.27.27,0,0,0-.19-.09.24.24,0,0,0-.17.07.25.25,0,0,0,0,.36l.74.76a.27.27,0,0,0,.19.09.28.28,0,0,0,.18-.08l1.71-1.54a.31.31,0,0,0,.09-.13A.24.24,0,0,0,25.24,28.7Z"/></svg>