<svg id="Layer_1" data-name="Layer 1" xmlns="http://www.w3.org/2000/svg" viewBox="0 0 40 40"><defs><style>.cls-1{fill:#5ac0be;}.cls-2,.cls-3{fill:#fff;stroke:#fff;stroke-miterlimit:10;}.cls-2{stroke-width:1.2px;}</style></defs><title>search</title><path id="Path_3743" data-name="Path 3743" class="cls-1" d="M3,0H37a3,3,0,0,1,3,3V37a3,3,0,0,1-3,3H3a3,3,0,0,1-3-3V3A3,3,0,0,1,3,0Z"/><path class="cls-2" d="M24.43,24.95a9.47,9.47,0,1,1,6.7-2.78A9.41,9.41,0,0,1,24.43,24.95Zm0-18.41a8.93,8.93,0,1,0,6.32,2.62A8.87,8.87,0,0,0,24.43,6.54Z"/><path class="cls-3" d="M8.63,34a2.45,2.45,0,0,1-1.69-.85,2.34,2.34,0,0,1-.84-1.83,1.84,1.84,0,0,1,.7-1.24l7.3-7.3a.32.32,0,0,1,.46,0l2.75,2.75a.32.32,0,0,1,0,.46L10,33.29A1.81,1.81,0,0,1,8.63,34Zm5.7-10.53L7.25,30.56l0,0a1.2,1.2,0,0,0-.46.79A1.75,1.75,0,0,0,7.4,32.7a1.85,1.85,0,0,0,1.23.66,1.15,1.15,0,0,0,.87-.46l0,0,7.09-7.09Z"/><path class="cls-3" d="M16.47,24.86a.27.27,0,0,1-.19-.08l-1.06-1.06a.27.27,0,0,1,0-.38l2-2a.28.28,0,0,1,.38,0l1.06,1.06a.27.27,0,0,1,0,.38l-2,2A.27.27,0,0,1,16.47,24.86Zm-.67-1.33.67.67,1.63-1.63-.67-.67Z"/></svg>