<svg id="Layer_1" data-name="Layer 1" xmlns="http://www.w3.org/2000/svg" viewBox="0 0 40 40"><defs><style>.cls-1{fill:#2f5266;}.cls-2{fill:#fff;}</style></defs><title>10</title><path id="Path_3743" data-name="Path 3743" class="cls-1" d="M3,0H37a3,3,0,0,1,3,3V37a3,3,0,0,1-3,3H3a3,3,0,0,1-3-3V3A3,3,0,0,1,3,0Z"/><path class="cls-2" d="M7.29,28.7H15.2a.79.79,0,0,1,.79.79v1.63a.79.79,0,0,1-.79.79H13.62a.79.79,0,0,0-.79.79h0a.79.79,0,0,0,.79.79H26.33a.79.79,0,0,0,.79-.79h0a.79.79,0,0,0-.79-.79H24.75a.79.79,0,0,1-.79-.79V29.49a.79.79,0,0,1,.79-.79h8a.79.79,0,0,0,.79-.79V7.29a.79.79,0,0,0-.79-.79H7.29a.79.79,0,0,0-.79.79V27.91A.79.79,0,0,0,7.29,28.7Zm.79-2.37V24.69a.79.79,0,0,1,.79-.79H31.13a.79.79,0,0,1,.79.79v1.63a.79.79,0,0,1-.79.79H8.87A.79.79,0,0,1,8.08,26.33ZM31.92,8.87V21.53a.79.79,0,0,1-.79.79H8.87a.79.79,0,0,1-.79-.79V8.87a.79.79,0,0,1,.79-.79H31.13A.79.79,0,0,1,31.92,8.87Z"/><path class="cls-2" d="M15.62,12a2,2,0,1,0-2,2A2,2,0,0,0,15.62,12Zm-2,.67a.67.67,0,1,1,.67-.67A.67.67,0,0,1,13.62,12.7Z"/><path class="cls-2" d="M17.37,18.32a3.75,3.75,0,0,0-7.5,0v2.25h7.5Zm-1.5.75h-4.5v-.75a2.25,2.25,0,0,1,4.5,0Z"/><path class="cls-2" d="M27.86,11.59h-4.2a2.09,2.09,0,0,0-2.09,2.09V16.9A2.09,2.09,0,0,0,23.66,19h4.2a2.09,2.09,0,0,0,2.09-2.09V13.68A2.09,2.09,0,0,0,27.86,11.59Zm.57,5.31a.57.57,0,0,1-.57.57h-4.2a.57.57,0,0,1-.57-.57V13.68a.57.57,0,0,1,.57-.57h4.2a.57.57,0,0,1,.57.57Z"/></svg>