<?xml version="1.0" encoding="utf-8"?>
<!-- Generator: Adobe Illustrator 21.0.0, SVG Export Plug-In . SVG Version: 6.00 Build 0)  -->
<svg version="1.1" id="Layer_1" xmlns="http://www.w3.org/2000/svg" xmlns:xlink="http://www.w3.org/1999/xlink" x="0px" y="0px"
	 viewBox="0 0 56 56" style="enable-background:new 0 0 56 56;" xml:space="preserve">
<style type="text/css">
	.st0{fill:#D6AE6E;}
	.st1{fill:none;stroke:#FFFFFF;stroke-width:2;}
</style>
<g id="Group_5106" transform="translate(-10570 -251)">
	<rect id="Rectangle_100" x="10570" y="251" class="st0" width="56" height="56"/>
	<g id="Group_2680" transform="translate(1282 3939)">
		<path id="Path_3238-2_1_" class="st1" d="M9304.2-3675.3L9304.2-3675.3c0.3-0.7,1.1-0.9,1.8-0.6l0.4,0.2c0.4,0.2,0.7,0.7,0.7,1.2
			v1.9c0,0.4,0.2,0.9,0.6,1.1l3.1,2.1c0.2,0.2,0.5,0.2,0.8,0.2h3.9c0.4,0,0.7-0.1,1-0.4l2.8-2.9c0.3-0.3,0.6-0.4,1-0.4h2.7
			c0.2,0,0.4,0,0.6,0.1l4.5,2.1c0.2,0.1,0.4,0.3,0.5,0.5l2,3.2c0.3,0.5,0.3,1,0,1.5l-0.9,1.2c-0.2,0.2-0.3,0.6-0.2,0.9l0.5,4.6
			c0,0.4,0.2,0.8,0.6,1l0.4,0.3c0.6,0.4,0.8,1.2,0.4,1.8c-0.1,0.1-0.1,0.2-0.2,0.2l-0.2,0.3c-0.5,0.5-0.5,1.3,0,1.8c0,0,0,0,0.1,0.1
			l2.7,2.6c0.5,0.4,0.5,1.2,0.2,1.7l-2.4,4c-0.2,0.4-0.6,0.6-1.1,0.6h-5.5c-0.5,0-0.9-0.2-1.1-0.6l-1.8-3c-0.4-0.6-1.2-0.8-1.8-0.5
			l-1.8,0.9c-0.3,0.1-0.6,0.2-0.9,0.1l-2.3-0.5c-0.3-0.1-0.6-0.2-0.8-0.5l-2.8-3.3c-0.1-0.1-0.1-0.2-0.2-0.3l-1.1-2.5
			c-0.2-0.5-0.7-0.8-1.2-0.8h-2.2c-0.7,0-1.2-0.5-1.3-1.2l-0.4-3.3c0-0.4-0.2-0.7-0.5-0.9l-2.7-1.9c-0.6-0.5-0.7-1.3-0.3-1.9
			l0.5-0.6c0.3-0.5,0.3-1.1,0-1.6l-2.7-3.4c0-0.1-0.1-0.2-0.1-0.3l-1.4-2.6c-0.2-0.4-0.1-0.9,0.1-1.3l0.5-0.9
			c0.3-0.6,1.1-0.9,1.8-0.5c0,0,0,0,0,0l1.8,1.1c0.6,0.4,1.5,0.2,1.8-0.5C9304.1-3675.2,9304.2-3675.2,9304.2-3675.3z"/>
	</g>
</g>
</svg>
