<?xml version="1.0" encoding="utf-8"?>
<!-- Generator: Adobe Illustrator 21.0.0, SVG Export Plug-In . SVG Version: 6.00 Build 0)  -->
<svg version="1.1" id="Layer_1" xmlns="http://www.w3.org/2000/svg" xmlns:xlink="http://www.w3.org/1999/xlink" x="0px" y="0px"
	 viewBox="0 0 56 56" style="enable-background:new 0 0 56 56;" xml:space="preserve">
<style type="text/css">
	.st0{fill:#A46499;}
	.st1{fill:#FFFFFF;}
</style>
<g id="Group_5105" transform="translate(-10570 -396)">
	<path id="Rectangle_70" class="st0" d="M10570.3,396h55.5c0.1,0,0.3,0.1,0.3,0.3v55.5c0,0.1-0.1,0.3-0.3,0.3h-55.5
		c-0.1,0-0.3-0.1-0.3-0.3v-55.5C10570,396.1,10570.1,396,10570.3,396z"/>
	<g>
		<path class="st1" d="M10579.2,415.2c0.2-0.4,0.6-0.6,1.1-0.7c0.9-0.1,1.4,0.4,1.5,1.5c0.6,4.5,1.2,8.3,1.8,11.4l3.9-9
			c0.4-0.8,0.8-1.2,1.3-1.3c0.8-0.1,1.3,0.5,1.5,1.8c0.4,2.9,1,5.3,1.7,7.4c0.5-5.5,1.2-9.4,2.3-11.8c0.3-0.6,0.7-0.9,1.2-0.9
			c0.4,0,0.8,0.1,1.1,0.4c0.3,0.3,0.5,0.7,0.6,1.2c0,0.4,0,0.7-0.2,1c-0.7,1.5-1.3,4.1-1.7,7.8c-0.4,3.5-0.6,6.2-0.5,8.2
			c0,0.5,0,1-0.2,1.4c-0.2,0.5-0.5,0.7-0.9,0.8c-0.5,0-0.9-0.2-1.4-0.8c-1.7-2-3-5.1-3.9-9.2c-1.2,2.8-2,4.8-2.6,6.2
			c-1,2.4-1.9,3.7-2.7,3.7c-0.5,0-0.9-0.5-1.2-1.5c-0.9-2.8-1.9-8.3-2.9-16.3C10578.8,416,10578.9,415.5,10579.2,415.2
			 M10617.4,418.5c-0.6-1.4-1.6-2.2-2.8-2.5c-0.3-0.1-0.7-0.1-1-0.1c-1.7,0-3.1,1.1-4.2,3.2c-0.9,1.8-1.4,3.8-1.4,6.1
			c0,1.7,0.3,3.1,0.9,4.3c0.6,1.4,1.6,2.2,2.8,2.5c0.3,0.1,0.7,0.1,1,0.1c1.7,0,3.1-1.1,4.2-3.2c0.9-1.8,1.4-3.9,1.4-6.1
			C10618.3,421.1,10618,419.7,10617.4,418.5 M10615.2,424.5c-0.3,1.4-0.7,2.5-1.4,3.2c-0.5,0.6-1,0.8-1.4,0.7
			c-0.4-0.1-0.8-0.6-1-1.4c-0.2-0.7-0.3-1.3-0.3-2c0-0.5,0-1.1,0.1-1.6c0.2-0.9,0.5-1.7,0.9-2.6c0.6-1.1,1.2-1.5,1.8-1.3
			c0.4,0.1,0.8,0.6,1,1.4c0.2,0.7,0.3,1.3,0.3,2C10615.3,423.5,10615.2,424,10615.2,424.5 M10606.3,418.5c-0.6-1.4-1.6-2.2-2.8-2.5
			c-0.3-0.1-0.7-0.1-1-0.1c-1.7,0-3.1,1.1-4.2,3.2c-0.9,1.8-1.4,3.8-1.4,6.1c0,1.7,0.3,3.1,0.9,4.3c0.6,1.4,1.6,2.2,2.8,2.5
			c0.3,0.1,0.7,0.1,1,0.1c1.7,0,3.1-1.1,4.2-3.2c0.9-1.8,1.4-3.9,1.4-6.1C10607.1,421.1,10606.8,419.7,10606.3,418.5 M10604,424.5
			c-0.2,1.4-0.7,2.5-1.4,3.2c-0.5,0.6-1,0.8-1.4,0.7c-0.4-0.1-0.8-0.6-1-1.4c-0.2-0.7-0.3-1.3-0.3-2c0-0.5,0-1.1,0.1-1.6
			c0.2-0.9,0.5-1.7,0.9-2.6c0.6-1.1,1.2-1.5,1.8-1.3c0.4,0.1,0.8,0.6,1,1.4c0.2,0.7,0.3,1.3,0.3,2
			C10604.1,423.5,10604.1,424,10604,424.5"/>
	</g>
</g>
</svg>
