<svg id="Layer_1" data-name="Layer 1" xmlns="http://www.w3.org/2000/svg" viewBox="0 0 460 460"><defs><style>.cls-1{fill:#d63362;}.cls-2{fill:#fffdfd;}</style></defs><title>offer</title><path class="cls-1" d="M463,26H49A23,23,0,0,0,26,49V463a23,23,0,0,0,23,23H463a23,23,0,0,0,23-23V49a23,23,0,0,0-23-23" transform="translate(-26 -26)"/><path class="cls-2" d="M151.6,230.4a61.84,61.84,0,0,1-22.8-23,62.65,62.65,0,0,1-8.4-31.8,61.6,61.6,0,0,1,8.4-31.6,63.92,63.92,0,0,1,22.8-23,59.79,59.79,0,0,1,31.2-8.6,58.76,58.76,0,0,1,31,8.6,63.17,63.17,0,0,1,30.6,54.6,63.89,63.89,0,0,1-8.2,31.8,60.85,60.85,0,0,1-22.4,23,59.79,59.79,0,0,1-31,8.4A60.85,60.85,0,0,1,151.6,230.4Zm53.8-30.8a34.62,34.62,0,0,0,9-24,33.52,33.52,0,0,0-9.2-23.8,29.58,29.58,0,0,0-22.4-9.8,30.64,30.64,0,0,0-23,9.8,33.12,33.12,0,0,0-9.4,23.8q0,14.4,9.4,24.2a30.62,30.62,0,0,0,23,9.8A29.12,29.12,0,0,0,205.4,199.6Zm-43,194.8c-.54-1.06-.4-2.4.4-4L308.4,119.2q1.59-3.2,6-3.2h30c1.86,0,3.06.54,3.6,1.6s.4,2.4-.4,4L202,392.8q-1.6,3.21-6,3.2H166Q163.2,396,162.4,394.4ZM298.6,391A63.85,63.85,0,0,1,276,367.8a62.64,62.64,0,0,1-8.4-31.8,61.6,61.6,0,0,1,8.4-31.6,62.78,62.78,0,0,1,22.6-22.8,61.4,61.4,0,0,1,62,0,62.84,62.84,0,0,1,22.6,22.8,61.61,61.61,0,0,1,8.4,31.6,62.65,62.65,0,0,1-8.4,31.8A63.91,63.91,0,0,1,360.6,391a60.17,60.17,0,0,1-62,0Zm53.8-31a34.2,34.2,0,0,0,9.2-24,33.14,33.14,0,0,0-9.4-23.8,31.19,31.19,0,0,0-45.4,0,33.49,33.49,0,0,0-9.2,23.8q0,14.4,9.2,24.2a31.2,31.2,0,0,0,45.6-.2Z" transform="translate(-26 -26)"/></svg>