<svg xmlns="http://www.w3.org/2000/svg" viewBox="7335 11301 40 40">
  <defs>
    <style>
      .cls-1 {
        fill: #7ba0e6;
      }

      .cls-2 {
        fill: none;
        stroke: #fff;
        stroke-linecap: round;
        stroke-linejoin: round;
        stroke-miterlimit: 10;
        stroke-width: 2px;
      }
    </style>
  </defs>
  <g id="Group_5104" data-name="Group 5104" transform="translate(7064 10473)">
    <path id="Path_3903" data-name="Path 3903" class="cls-1" d="M3,0H37a3,3,0,0,1,3,3V37a3,3,0,0,1-3,3H3a3,3,0,0,1-3-3V3A3,3,0,0,1,3,0Z" transform="translate(271 828)"/>
    <g id="Group_3614" data-name="Group 3614" transform="translate(275 837.95)">
      <g id="Group_3542" data-name="Group 3542">
        <g id="Group_5103" data-name="Group 5103">
          <path id="Path_3720" data-name="Path 3720" class="cls-2" d="M3,14.8a2,2,0,1,1-2,2A2.006,2.006,0,0,1,3,14.8Z"/>
          <path id="Path_3721" data-name="Path 3721" class="cls-2" d="M24.4,16.2l.2-5.9c0-1.8-3.6-3.3-8-3.3s-8,1.5-8,3.3c0,0,.1,6,.2,6Z"/>
          <g id="Group_3541" data-name="Group 3541">
            <path id="Path_3722" data-name="Path 3722" class="cls-2" d="M30.8,8.4,17.3,1.2a1.95,1.95,0,0,0-1.5,0L2.4,8.4c-.4.3-.4.7,0,.9l5.9,3.2c.2-1.2.3-2.3.3-2.3,0-1.8,3.6-3.3,8-3.3s8,1.5,8,3.3c0,0,.1,1,.3,2.2l5.9-3.2C31.2,9.1,31.2,8.7,30.8,8.4Z"/>
          </g>
          <line id="Line_301" data-name="Line 301" class="cls-2" y2="4.6" transform="translate(3 10.2)"/>
        </g>
      </g>
    </g>
  </g>
</svg>
